<?xml version="1.0" encoding="UTF-8"?>
<svg width="258px" height="67px" viewBox="0 0 258 67" version="1.1" xmlns="http://www.w3.org/2000/svg" xmlns:xlink="http://www.w3.org/1999/xlink">
    <!-- Generator: Sketch 58 (84663) - https://sketch.com -->
    <title>logo ai文件-01</title>
    <desc>Created with Sketch.</desc>
    <defs>
        <radialGradient cx="16.7477117%" cy="94.0763446%" fx="16.7477117%" fy="94.0763446%" r="147.000837%" gradientTransform="translate(0.167477,0.940763),scale(0.683673,1.000000),translate(-0.167477,-0.940763)" id="radialGradient-1">
            <stop stop-color="#D93C38" offset="42%"></stop>
            <stop stop-color="#D03634" offset="57%"></stop>
            <stop stop-color="#B9272A" offset="82%"></stop>
            <stop stop-color="#AD1F24" offset="93%"></stop>
        </radialGradient>
    </defs>
    <g id="页面-1" stroke="none" stroke-width="1" fill="none" fill-rule="evenodd">
        <g id="AI智能分析备份-5" transform="translate(-70.000000, -63.000000)" fill-rule="nonzero">
            <g id="logo-ai文件-01" transform="translate(70.000000, 63.000000)">
                <path d="M61.0953763,19.2557805 C72.1461844,23.0730057 79.8980325,31.9515887 79.8980325,42.3005104 C79.8953595,44.2814208 79.606057,46.2505968 79.0398805,48.1471553 L78.8786114,48.6625524 C74.5526615,57.1948866 66.7710817,63.4686386 57.5050441,65.9002954 C48.2390066,68.3319523 38.3738157,66.6891863 30.3994738,61.3866364 C42.645211,63.9609071 56.8875357,56.8922285 64.9420133,43.3111988 L65.1942987,42.8801631 L65.3828394,42.5482519 C69.6950839,34.7748638 67.9195786,25.0144925 61.0953763,19.2557805 Z M34.0736374,3.47791629 C25.8308808,12.6246628 24.7654168,28.2049008 32.1930971,41.8492151 L32.4383161,42.2934414 L32.5869816,42.554992 L32.7498058,42.8518873 L32.9355055,43.1679452 C37.5201684,50.8000625 46.8945079,54.1430859 55.304498,51.0942662 C46.4624357,58.7569923 34.8735998,61.0261207 25.8970306,55.8445909 C24.0200579,54.7649393 22.3260266,53.3954774 20.8777974,51.7870219 C15.6415735,43.7728097 14.088352,33.9048983 16.6100415,24.6731583 C19.131731,15.4414183 25.4874912,7.72755017 34.0736374,3.47791629 Z M81.4059262,19.1426775 C86.5789778,25.241136 90.9756631,31.9559001 94.4955765,39.1336272 C95.7523065,41.5728463 96.8219896,44.1037119 97.6954261,46.7044572 C98.7006886,50.132891 97.150319,53.306843 94.0354212,55.0882148 C92.5162124,55.8943735 90.7572111,56.1277268 89.0799018,55.7456258 C87.614484,55.3851101 86.3826835,54.5792514 86.0145592,53.2644294 C85.2967736,50.7850023 84.432176,48.3506225 83.425431,45.974121 L83.0412476,45.085671 L83.2339452,44.6707974 C89.4488339,30.9990362 81.4690029,19.2476512 81.4059262,19.1426775 Z M16.5806542,19.1426775 C16.4815439,19.2487115 8.34033355,31.2376262 14.9099363,45.085671 L14.9099363,45.085671 L14.4804748,46.0859741 C13.4977539,48.4279266 12.6507298,50.8246986 11.943704,53.2644294 C11.7274738,54.0221628 11.2290992,54.6155532 10.5637555,55.0486598 C10.0793493,55.3670489 9.50854023,55.5988555 8.8995993,55.7456258 L8.896,55.739 L8.87128205,55.7456258 C7.29877691,56.1032448 5.65469637,55.9205266 4.20337793,55.2325389 L3.91576273,55.0882148 C0.836261439,53.306843 -0.678711609,50.132891 0.291154314,46.7044572 C1.16109703,44.1034624 2.2284495,41.5725117 3.48392462,39.1336272 C7.00920193,31.9573212 11.4080308,25.2429146 16.5806542,19.1426775 Z M48.9755919,-1.56319402e-13 C67.4958281,-1.56319402e-13 82.5127336,14.9853956 82.5244577,33.4784788 C82.5244577,34.1853723 82.4961405,34.8922659 82.4536646,35.5991595 C78.5175664,23.6102448 65.0243952,14.7670064 48.9755919,14.7670064 C39.9117104,14.7725083 32.1489859,21.2503117 30.5339808,30.1560791 C28.3181557,18.6831967 32.1551435,7.5354853 41.1246335,2.36809341 C43.0109093,1.27861157 45.058865,0.495945555 47.191605,0.0494825489 C47.779188,-1.56319402e-13 48.3738503,-1.56319402e-13 48.9755919,-1.56319402e-13 Z" id="形状结合" fill="url(#radialGradient-1)"></path>
                <path d="M137.97757,51.2154448 C136.896359,51.2179654 135.865637,51.7721953 135.136449,52.7431448 L135.136449,48 L134,48 L134,60.6726353 L135.136449,60.6726353 L135.136449,59.4795743 C135.866256,60.4485779 136.89712,61.0002445 137.97757,61 C140.199097,61 142,58.8096524 142,56.1077222 C142,53.405792 140.199097,51.2154448 137.97757,51.2154448 L137.97757,51.2154448 Z M137.97757,59.6105201 C136.408732,59.524343 135.173251,57.9522929 135.173251,56.0422493 C135.173251,54.1322058 136.408732,52.5601557 137.97757,52.4739786 C139.546408,52.5601557 140.781889,54.1322058 140.781889,56.0422493 C140.781889,57.9522929 139.546408,59.524343 137.97757,59.6105201 L137.97757,59.6105201 Z" id="形状" fill="#B5CAD7"></path>
                <path d="M119.521906,48.0000365 C116.890972,47.9912447 114.514184,49.5692811 113.501246,51.9974096 C112.488308,54.4255381 113.039016,57.2248247 114.896248,59.0883042 C116.75348,60.9517837 119.550909,61.5118957 121.982436,60.5071284 C124.413963,59.502361 126,57.1308987 126,54.4999588 C126,50.918672 123.103184,48.0120911 119.521906,48.0000365 Z M119.521906,59.5675428 C116.711101,59.5675428 114.432494,57.2889427 114.432494,54.4781471 C114.432494,51.6673515 116.711101,49.3887514 119.521906,49.3887514 C122.33271,49.3887514 124.611318,51.6673515 124.611318,54.4781471 C124.611318,57.2889427 122.33271,59.5675428 119.521906,59.5675428 Z" id="形状" fill="#B5CAD7"></path>
                <path d="M120.500051,50 C119.084454,50 117.808246,50.8527352 117.26652,52.1605764 C116.724794,53.4684177 117.024235,54.9738081 118.025214,55.9747864 C119.026192,56.9757648 120.531582,57.2752055 121.839424,56.73348 C123.147265,56.1917544 124,54.915546 124,53.4999488 C124,51.5669805 122.43302,50 120.500051,50 Z M120.500051,56.323112 C119.358188,56.323112 118.328761,55.6352704 117.891788,54.5803266 C117.454816,53.5253828 117.696354,52.31109 118.503773,51.503671 C119.311192,50.696252 120.525485,50.4547142 121.580429,50.8916862 C122.635373,51.3286582 123.323214,52.3580859 123.323214,53.4999488 C123.323214,55.0591388 122.059241,56.323112 120.500051,56.323112 Z" id="形状" fill="#B5CAD7"></path>
                <circle id="椭圆形" fill="#B5CAD7" cx="153" cy="49" r="1"></circle>
                <path d="M152.88563,60.1772087 C152.88563,60.1772087 152.88563,60.6489052 152.621701,60.7203744 C152.400007,60.7328928 152.181223,60.6549251 152,60.49882 L152,61.7995587 C152.424676,61.9939775 152.883968,62.0482187 153.331378,61.9567909 C153.73185,61.7888331 154.000501,61.3293736 154,60.8132843 L154,50 L152.88563,50 L152.88563,60.1772087 Z" id="路径" fill="#B5CAD7"></path>
                <path d="M168.015822,50.0034649 C166.932451,49.9899499 165.891077,50.4605204 165.133174,51.3060601 C164.375271,52.1515998 163.966674,53.2986608 164.002129,54.4812619 C163.985628,55.6617328 164.399256,56.8009999 165.151996,57.6483676 C165.904736,58.4957354 166.934908,58.9817704 168.015822,58.9995209 C169.628888,59.0254277 171.100838,57.9988376 171.757818,56.3897205 L170.738958,55.7490719 C170.284341,56.9567049 169.205226,57.7432671 168.009647,57.7384545 C167.259307,57.7514962 166.536449,57.430321 166.007561,56.8489021 C165.478674,56.2674832 165.189354,55.475946 165.206237,54.6565973 L171.99864,54.6565973 C171.99864,54.6026479 171.99864,54.3463885 171.99864,54.2924391 C172.026875,53.1351047 171.614439,52.0167928 170.859587,51.2039151 C170.104734,50.3910374 169.075046,49.9563709 168.015822,50.0034649 L168.015822,50.0034649 Z M165.366785,53.5236607 C165.67848,52.2004037 166.770893,51.2754321 168.021997,51.2754321 C169.2731,51.2754321 170.365514,52.2004037 170.677209,53.5236607 L165.366785,53.5236607 Z" id="形状" fill="#B5CAD7"></path>
                <path d="M186.312695,51.3334863 C187.39165,51.2694394 188.425768,51.8089618 189.053427,52.7633863 L190,52.0920717 C189.159952,50.7691987 187.768395,49.9865385 186.287948,50.0042836 C185.15687,49.9504718 184.055468,50.405565 183.243858,51.2620846 C182.432248,52.1186041 181.982391,53.3006077 182.000528,54.5289435 C182.000528,57.2142016 183.856554,58.9998982 186.287948,58.9998982 C187.733547,59.0100556 189.094044,58.2594186 189.938132,56.9859546 C189.764903,56.8382654 189.319457,56.495895 189.003933,56.2475087 C188.397632,57.2028083 187.387496,57.7609513 186.318882,57.7311138 C185.498052,57.7907785 184.692463,57.4695583 184.102547,56.8473735 C183.512631,56.2251887 183.193846,55.3605296 183.225505,54.4685252 C183.206945,52.427729 184.431922,51.3334863 186.312695,51.3334863 Z" id="路径" fill="#B5CAD7"></path>
                <path d="M201.223684,59.6787126 C201.170179,59.6787458 201.118954,59.6545397 201.081745,59.61164 C201.044536,59.5687402 201.024532,59.5108233 201.026316,59.4511575 L201.026316,52.7199322 L203,52.7199322 L203,51.4059853 L201.026316,51.4059853 L201.026316,48 L199.710526,48 L199.710526,51.4059853 L198,51.4059853 L198,52.7199322 L199.710526,52.7199322 L199.710526,59.8108413 C199.710526,60.4675955 200.187697,61 200.776316,61 L202.934211,61 L202.934211,59.6933936 L201.223684,59.6787126 Z" id="路径" fill="#B5CAD7"></path>
                <path d="M220,52.0007844 C218.517202,51.97042 217.23506,52.8248465 217,54 L223,54 C222.76494,52.8248465 221.482798,51.97042 220,52.0007844 L220,52.0007844 Z" id="路径" fill="#C11920"></path>
                <polygon id="路径" fill="#C11920" points="237 49 231 49 234.050847 55"></polygon>
                <path d="M254.347283,49 L237.610244,49 L233,60.9999606 L254.347283,60.9999606 C254.519759,61.001974 254.685804,60.9267013 254.808413,60.7908757 C254.931023,60.6550501 255,60.4699584 255,60.2768476 L255,49.7307643 C254.982746,49.3354522 254.700375,49.0193175 254.347283,49 Z M249.874453,55.2614965 L241.911305,55.2614965 C241.877791,56.2904173 242.218641,57.2905227 242.855845,58.0329187 C243.493048,58.7753146 244.372057,59.1964472 245.291693,59.1999317 C246.700451,59.1941236 247.975175,58.2637687 248.548407,56.8230245 L249.565272,57.3307134 C248.824509,59.2195333 247.147873,60.4305761 245.305434,60.4076159 C244.066236,60.3793465 242.887854,59.800952 242.029652,58.7997379 C241.17145,57.7985238 240.703769,56.4565512 240.729544,55.0691901 C240.691497,53.2389032 241.528499,51.5249232 242.925261,50.5728899 C244.322022,49.6208565 246.066342,49.5754063 247.501151,50.4536599 C248.93596,51.3319135 249.843277,53.0004433 249.881324,54.8307302 C249.881324,54.8922682 249.874453,55.1999585 249.874453,55.2614965 Z" id="形状" fill="#C11920"></path>
                <path d="M244,52.0007844 C242.517202,51.97042 241.23506,52.8248465 241,54 L247,54 C246.762367,52.8260257 245.481826,51.9726661 244,52.0007844 Z" id="路径" fill="#C11920"></path>
                <path d="M228.445381,49 L212.660344,49 C212.302071,49.0231214 212.017323,49.3382368 212,49.7307692 L212,60.2769231 C212,60.6762674 212.295646,61 212.660344,61 L230.763611,61 L232,57.8384615 L228.445381,49 Z M220.717949,59.2 C222.178483,59.1805628 223.497516,58.2396434 224.103969,56.7846154 L225.08746,57.3307692 C224.330069,59.2196017 222.615796,60.4306526 220.731999,60.4076923 C219.464983,60.3794227 218.260149,59.8010243 217.382682,58.7998035 C216.505216,57.7985827 216.027035,56.4566011 216.05339,55.0692308 C215.993253,52.2398335 218.039188,49.8927724 220.623112,49.8269231 C223.207036,49.7610737 225.350471,52.001372 225.410608,54.8307692 C225.410608,54.8923077 225.410608,55.2 225.410608,55.2615385 L217.331928,55.2615385 C217.28402,56.2813144 217.618355,57.2783125 218.257563,58.02181 C218.896772,58.7653075 219.785452,59.1908646 220.717949,59.2 L220.717949,59.2 Z" id="形状" fill="#C11920"></path>
                <path d="M125.425156,5.43271346 C125.381254,5.0281665 125.506642,4.62350332 125.769711,4.3207283 C126.101132,4.08081436 126.50384,3.96973205 126.906742,4.00709146 C127.289759,3.97582474 127.670982,4.08704734 127.981754,4.3207283 C128.244823,4.62350332 128.370211,5.0281665 128.326309,5.43271346 L128.326309,11.0211517 L138.483792,11.0211517 C139.078396,11.011134 139.672846,11.049267 140.261696,11.1352015 C140.65511,11.1783919 141.027067,11.3422209 141.329817,11.6056567 C141.608049,11.8881508 141.791575,12.2553379 141.853541,12.6534889 C141.961613,13.2526831 142.010104,13.8617471 141.998254,14.4711569 L141.998254,26.332332 C142.00761,26.8911193 141.966081,27.4495766 141.874214,28.0003097 C141.813352,28.3958219 141.635152,28.761989 141.364273,29.0481419 C141.068091,29.3356641 140.696588,29.5265645 140.296152,29.5970064 C139.709808,29.7079622 139.114221,29.7581075 138.518248,29.7466967 L128.326309,29.7466967 L128.326309,38.6354499 C128.34921,38.9967593 128.238342,39.353545 128.01621,39.6333853 C127.698531,39.9098937 127.284756,40.038811 126.872287,39.9897908 C126.2429,39.9897908 125.843216,39.8828691 125.673235,39.6690258 C125.48047,39.3499505 125.393387,38.974626 125.425156,38.5998093 L125.425156,29.7466967 L115.446841,29.7466967 C114.850868,29.7581075 114.255282,29.7079622 113.668937,29.5970064 C113.271398,29.5302043 112.903325,29.3385938 112.614599,29.0481419 C112.357874,28.7545324 112.188055,28.3908432 112.125331,28.0003097 C112.033464,27.4495766 111.991934,26.8911193 112.001291,26.332332 L112.001291,14.4355164 C111.991963,13.8578138 112.03348,13.2804318 112.125331,12.7105138 C112.184436,12.3185635 112.363111,11.9564166 112.635272,11.6769378 C112.938401,11.4166133 113.301715,11.2422181 113.689611,11.170842 C114.268882,11.0590524 114.857694,11.0088942 115.446841,11.0211517 L125.425156,11.0211517 L125.425156,5.43271346 Z M115.446841,13.9080363 C115.278976,13.8981635 115.114554,13.9600099 114.992029,14.0791109 C114.888393,14.1810261 114.830888,14.3232685 114.833437,14.4711569 L114.833437,26.2182822 C114.830909,26.3806537 114.881964,26.5390845 114.978246,26.6673532 C115.085208,26.7984886 115.247146,26.8676187 115.412386,26.852684 L125.425156,26.852684 L125.425156,13.9080363 L115.446841,13.9080363 Z M128.326309,13.9080363 L128.326309,26.852684 L138.483792,26.852684 C138.658247,26.8588886 138.829937,26.8063606 138.973061,26.7029937 C139.103991,26.6103283 139.172902,26.3822288 139.172902,26.0329514 L139.172902,14.4711569 C139.193115,14.3023672 139.131175,14.1341825 139.007516,14.022086 C138.85785,13.9377533 138.688417,13.8982578 138.518248,13.9080363 L128.326309,13.9080363 Z" id="形状" fill="#B5CAD7"></path>
                <path d="M158.384704,19.7722759 L158.384704,19.8854301 C159.254793,20.9250341 160.117808,22.0070709 160.973749,23.2164062 C161.829691,24.4257415 162.621967,25.5714276 163.336431,26.7524743 C163.724884,27.2686748 163.969025,27.8788758 164.04382,28.5205084 C164.011601,29.02229 163.71535,29.4692493 163.265692,29.694483 C162.919429,29.9157929 162.483372,29.9425383 162.112647,29.7652044 C161.61146,29.5215052 161.212934,29.1080431 160.987897,28.5983019 C160.591759,27.8910883 160.160251,27.1838746 159.700448,26.476661 C159.240645,25.7694474 158.802064,25.125883 158.37763,24.503535 L158.37763,40.4016972 C158.37763,41.4695898 157.910753,42 156.962851,42 C156.014949,42 155.548072,41.4695898 155.548072,40.4016972 L155.548072,25.4724177 C154.953864,26.6605366 154.27477,27.8698719 153.517864,29.0792071 C152.760957,30.2885424 151.933311,31.6322483 151.013705,32.9900985 C150.736438,33.4220942 150.341226,33.7656715 149.874807,33.9801975 C149.444097,34.1638403 148.946194,34.0840856 148.594432,33.7751056 C148.219887,33.543924 147.994278,33.1330959 148.00011,32.6930687 C148.044688,32.2357413 148.210776,31.7986464 148.48125,31.4271564 C149.778131,29.6355485 150.957113,27.8180095 152.018198,25.9745394 C153.166255,23.9831981 154.166368,21.9101932 155.010456,19.7722759 L149.804068,19.7722759 C149.410517,19.8038415 149.022845,19.6617305 148.742984,19.3833084 C148.501369,19.1138391 148.372256,18.7620321 148.382215,18.4002815 C148.364704,18.02825 148.48567,17.6629224 148.721762,17.3748217 C149.005465,17.0887287 149.403103,16.9458225 149.804068,16.9858542 L155.533924,16.9858542 L155.533924,11.8302669 C154.861904,11.9787818 154.196958,12.1131524 153.524937,12.2404508 L151.438138,12.6082019 C150.985025,12.7083833 150.517145,12.722776 150.058729,12.6506347 C149.740403,12.5728412 149.478669,12.2404508 149.2806,11.6463914 C149.004718,10.6987251 149.563556,10.11881 150.957113,9.89250161 C151.770611,9.7934917 152.683144,9.64497684 153.673489,9.44695703 C154.663835,9.24893722 155.65418,9.02970099 156.630378,8.7963205 C157.606575,8.56294 158.519108,8.3083431 159.353827,8.04667406 C160.029406,7.8491572 160.693086,7.6130309 161.341592,7.33946044 C161.782894,7.08570664 162.291871,6.97454988 162.798814,7.02121431 C163.231012,7.09735864 163.586734,7.404127 163.725495,7.8203657 C163.922968,8.18299561 163.956419,8.61259938 163.817455,9.00141245 C163.531789,9.42680018 163.089233,9.72176408 162.586598,9.82178025 C161.815543,10.069305 161.086932,10.2956134 160.407838,10.4936332 L158.412999,11.0876926 L158.412999,16.97171 L162.402676,16.97171 C162.827374,16.9458894 163.245607,17.0852655 163.569869,17.3606774 C163.859145,17.621291 164.017308,17.9971583 164.001377,18.3861372 C164.009008,18.7642977 163.845198,19.1256305 163.555721,19.3691641 C163.233326,19.6380134 162.82209,19.7767393 162.402676,19.7581316 L158.384704,19.7722759 Z M163.973081,34.2560109 C163.431621,34.3920542 162.862738,34.3724424 162.331937,34.1994338 C161.932413,33.9945596 161.677197,33.5873998 161.666991,33.1386133 C161.55018,32.7050517 161.677415,32.2422473 161.999464,31.929278 C162.494006,31.6235137 163.054008,31.4393164 163.633534,31.3917957 C165.699112,31.1159824 167.800059,30.8189527 169.950523,30.5007065 L176.408989,29.5106075 L176.408989,7.26873908 C176.408989,6.69589604 176.543393,6.34228923 176.798054,6.20791865 C177.117486,6.05506353 177.470103,5.98455782 177.823769,6.0028267 C178.165759,5.98838522 178.506003,6.05884684 178.814114,6.20791865 C179.068774,6.34228923 179.203178,6.69589604 179.203178,7.26873908 L179.203178,29.1923613 C179.627612,29.1428564 180.037898,29.0792071 180.448184,29.0084858 C180.85847,28.9377644 181.27583,28.8670431 181.700263,28.8175381 C182.240322,28.7048805 182.801044,28.7440478 183.320185,28.9306923 C183.699855,29.1440161 183.945025,29.5356577 183.970984,29.9702963 C184.057805,30.3688639 183.947203,30.7848369 183.67388,31.0876938 C183.230461,31.389183 182.715931,31.5695891 182.181288,31.6110319 L179.203178,32.0565765 L179.203178,40.5502121 C179.24842,40.9454133 179.104164,41.3387412 178.814114,41.6110325 C178.520837,41.8039507 178.174573,41.9003858 177.823769,41.8868458 C177.461467,41.9040239 177.102852,41.8075927 176.798054,41.6110325 C176.508003,41.3387412 176.363747,40.9454133 176.408989,40.5502121 L176.408989,32.4313997 L163.973081,34.2560109 Z M173.805796,25.0622338 C174.470742,25.8260245 174.513185,26.526166 173.876535,27.1414418 C173.596444,27.4816544 173.160289,27.6528627 172.72349,27.5940585 C172.303964,27.5029567 171.924661,27.279893 171.641184,26.9575663 C171.068198,26.3352183 170.537656,25.7694474 170.042483,25.2461093 C169.547311,24.7227712 169.059212,24.2347938 168.571113,23.775105 C168.083014,23.3154161 167.587842,22.8557273 167.064373,22.3606777 C166.540905,21.8656282 165.96792,21.4130115 165.352491,20.8896734 C165.076178,20.6645048 164.874057,20.3613985 164.772431,20.0198007 C164.665402,19.6410706 164.773943,19.234143 165.055387,18.9589802 C165.30396,18.5860883 165.714575,18.3530162 166.162245,18.330708 C166.609914,18.3083998 167.041676,18.4994948 167.326108,18.8458261 C167.991054,19.4186691 168.599409,19.934935 169.129951,20.4087682 C169.660493,20.8826013 170.183961,21.3493623 170.693282,21.8231954 C171.202602,22.2970285 171.704849,22.7920781 172.200022,23.308344 C172.695194,23.8246099 173.23281,24.4045251 173.805796,25.0268731 L173.805796,25.0622338 Z M174.364634,17.0919363 C174.082006,17.4292309 173.631131,17.5749042 173.204515,17.4667595 C172.717689,17.2545713 172.284908,16.9355048 171.938287,16.5332375 C171.174307,15.7128697 170.396178,14.949079 169.610976,14.2277211 C168.825773,13.5063632 167.969832,12.770861 167.029004,12.0282867 C166.607459,11.733098 166.266907,11.3366968 166.038659,10.8755285 C165.915598,10.469664 166.02106,10.0289965 166.314541,9.72277034 C166.91818,8.9731239 167.689234,8.9849108 168.627704,9.75813102 C169.221912,10.2319641 169.766602,10.6775087 170.268848,11.1018369 C170.771095,11.5261651 171.237972,11.936349 171.683627,12.3465329 C172.129283,12.7567168 172.589086,13.1739728 173.027667,13.5912288 C173.466249,14.0084849 173.911904,14.4752459 174.385855,15.0056561 C174.690387,15.2741611 174.864846,15.6605351 174.864846,16.0664765 C174.864846,16.472418 174.690387,16.8587919 174.385855,17.127297 L174.364634,17.0919363 Z" id="形状" fill="#B5CAD7"></path>
                <path d="M198.16075,27.0854919 C197.464818,27.7763029 196.704973,27.628272 195.881216,26.6413991 C194.986446,25.5746366 194.162689,24.608911 193.409946,23.7442224 L193.409946,38.5473151 C193.449833,38.9476206 193.330002,39.3474917 193.076182,39.6610717 C192.746964,39.9138775 192.332935,40.0323817 191.918662,39.992379 C191.56867,40.0195013 191.223324,39.8992637 190.96708,39.6610717 C190.724837,39.3421349 190.610915,38.9450862 190.647519,38.5473151 L190.647519,24.2658552 C189.427901,25.6268837 188.115815,26.903406 186.720472,28.0864629 C186.323479,28.4889022 185.804719,28.751325 185.24339,28.8336667 C184.831011,28.8173675 184.462997,28.572013 184.291809,28.1992484 C184.058764,27.8690849 183.959854,27.46377 184.014856,27.0643446 C184.149649,26.5918227 184.445916,26.1806003 184.852816,25.9012445 C186.921398,24.2268905 188.802269,22.3362273 190.462884,20.261971 C191.793813,18.5664598 192.909975,16.7151447 193.786317,14.7495813 C193.914142,14.4535194 193.850229,14.3054885 193.601682,14.3054885 L186.159465,14.3054885 C185.717049,14.337468 185.274942,14.2394002 184.888323,14.0235248 C184.577393,13.7493836 184.423193,13.3403282 184.476444,12.9309156 C184.432175,12.5183126 184.593941,12.110292 184.909627,11.8383064 C185.281465,11.60289 185.719426,11.4917355 186.159465,11.5210972 L194.27631,11.5210972 C194.996961,11.4628631 195.717175,11.6384993 196.328601,12.0215827 C196.770187,12.3926091 197.0075,12.9501172 196.967723,13.5230393 C196.942846,14.1536962 196.788176,14.7726227 196.513236,15.341705 C196.094257,16.2580869 195.646871,17.1251252 195.192385,17.9428198 C194.737898,18.7605145 194.247905,19.5359146 193.772114,20.2831183 C194.747367,21.2229972 195.54982,22.0383422 196.179473,22.7291532 C196.818595,23.4340624 197.457716,24.1389715 198.103939,24.8086353 C198.445772,25.175736 198.657689,25.6434711 198.707554,26.1409136 C198.645749,26.5108356 198.451601,26.8462172 198.16075,27.0854919 L198.16075,27.0854919 Z M193.786317,8.75785325 C194.000538,9.09199639 194.122948,9.47596547 194.141385,9.87160975 C194.124352,10.2882851 193.871343,10.6595447 193.48806,10.8302862 C193.158109,11.0807215 192.743195,11.1944253 192.33054,11.1474954 C191.982574,11.0840535 191.620405,10.7738935 191.322148,10.2029171 C190.933912,9.54357445 190.509562,8.90585002 190.051006,8.29261319 C189.624925,7.73573494 189.227249,7.22115124 188.850877,6.74886209 C188.498542,6.36744842 188.253616,5.90065162 188.140742,5.39543646 C188.112082,5.01919549 188.271339,4.6529647 188.566823,4.41561271 C189.291161,3.76709626 190.03917,3.87753203 190.810851,4.74692002 C191.43577,5.4518292 192.003878,6.2201802 192.515175,6.93918757 C193.026472,7.65819493 193.438351,8.25736773 193.786317,8.75785325 L193.786317,8.75785325 Z M218.683658,29.0521885 C219.066754,29.0319707 219.433701,29.2074471 219.656544,29.5174286 C219.919711,29.9851539 220.035946,30.5203176 219.990307,31.0541306 C220.017087,32.4590703 219.910092,33.8633795 219.670746,35.2483402 C219.533261,36.1441028 219.188061,36.9959263 218.662354,37.7366696 C218.228121,38.327523 217.612711,38.7628069 216.90832,38.9773097 C216.073651,39.2051012 215.210195,39.3119421 214.344732,39.2945189 C213.490125,39.3048183 212.635849,39.2553523 211.788245,39.146488 C211.200602,39.0799751 210.632777,38.895291 210.119427,38.6037079 C209.713372,38.3627611 209.395038,37.9998651 209.210454,37.5674914 C209.003196,37.0427114 208.906521,36.4813252 208.9264,35.9180039 L208.9264,24.174217 C208.50947,27.2958843 207.419511,30.2916518 205.730792,32.9573854 C204.074831,35.491041 201.85713,37.6152649 199.247257,39.1676352 C198.75829,39.4964753 198.189269,39.6888109 197.599743,39.7245135 C197.180086,39.7587673 196.78644,39.5191842 196.626858,39.1323898 C196.379015,38.7530757 196.357281,38.2703508 196.570047,37.8706023 C196.896423,37.3655105 197.339509,36.9450182 197.862493,36.6440604 C200.595653,35.0411103 202.812493,32.6987725 204.25371,29.8910304 C205.673981,27.0995901 206.384116,23.6737315 206.384116,19.6134546 L206.384116,11.4858518 C206.339981,11.0327215 206.474933,10.5802955 206.760488,10.2240643 C207.081493,9.95327206 207.498328,9.82127279 207.918008,9.85751157 C208.28085,9.83157987 208.636768,9.96567841 208.890893,10.2240643 C209.151295,10.5911771 209.26978,11.039108 209.224657,11.4858518 L209.224657,20.2196765 C209.493509,19.9569707 209.864099,19.8232024 210.24015,19.8531237 C211.156225,19.8531237 211.617813,20.3677074 211.617813,21.410973 L211.617813,35.5091566 C211.617813,35.8334148 211.823752,36.0660348 212.23563,36.2140658 C212.910758,36.3960854 213.610407,36.472195 214.309225,36.4396367 C214.805849,36.4508845 215.30197,36.401164 215.786307,36.2916058 C216.173458,36.193066 216.500865,35.937163 216.688178,35.5866966 C216.936164,35.0743205 217.080903,34.5187826 217.114259,33.9513073 C217.197533,32.9902946 217.223617,32.0252421 217.192374,31.0611797 C217.118222,30.5124389 217.236039,29.9550585 217.526138,29.4821831 C217.819275,29.1615509 218.250481,29.001367 218.683658,29.0521885 L218.683658,29.0521885 Z M217.412516,27.7551556 C217.443924,28.1684018 217.302678,28.5762741 217.021942,28.8830103 C216.770991,29.1403352 216.424019,29.283205 216.063259,29.2777594 C215.691742,29.2967696 215.330652,29.152365 215.076171,28.8830103 C214.819723,28.5644522 214.693017,28.1619768 214.721104,27.7551556 L214.721104,8.86358962 C214.694331,8.73778971 214.643724,8.61818422 214.571975,8.51113504 C214.500962,8.40539866 214.43705,8.34900592 214.38734,8.34900592 L202.421562,8.34900592 C202.31715,8.35481141 202.224396,8.41709483 202.180116,8.51113504 C202.121986,8.6070639 202.090159,8.71642306 202.087798,8.82834417 L202.087798,27.9736775 C202.127801,28.3837444 201.985102,28.7906629 201.697224,29.087434 C201.44484,29.3093112 201.118258,29.4299357 200.781149,29.4257904 C200.417624,29.4486261 200.059894,29.3268784 199.78696,29.087434 C199.520536,28.7797865 199.392274,28.377461 199.431892,27.9736775 L199.431892,8.53228231 C199.422608,8.05912289 199.465471,7.5863742 199.559717,7.12246395 C199.630069,6.80234785 199.787227,6.50740749 200.014203,6.26952385 C200.249966,6.04414595 200.55003,5.89644874 200.873467,5.84657834 C201.322842,5.76257805 201.779743,5.72478315 202.236926,5.73379287 L214.571975,5.73379287 C215.010339,5.72477375 215.448408,5.7625864 215.878624,5.84657834 C216.203992,5.90409058 216.503838,6.05905992 216.737888,6.29067112 C216.977612,6.5384087 217.146713,6.84492935 217.227881,7.17885669 C217.338929,7.65541717 217.400793,8.14196516 217.412516,8.6309696 L217.412516,27.7551556 Z" id="形状" fill="#B5CAD7"></path>
                <path d="M234.598473,32.0907173 C234.964814,32.3296004 235.193207,32.7183903 235.215817,33.1416167 C235.133933,33.6404775 234.860767,34.0924003 234.449458,34.4094759 C233.886881,34.9805235 233.287275,35.5172023 232.654191,36.016335 C232.105441,36.4457348 231.44552,36.9338945 230.674431,37.4808142 C230.257436,37.7815703 229.770561,37.9816059 229.255247,38.0638939 C228.841683,38.1325223 228.416225,38.0502512 228.063133,37.833374 C227.68963,37.5932098 227.408154,37.2433452 227.261295,36.8367146 C227.055934,36.3063516 226.978321,35.7385836 227.034226,35.1756155 L228.006366,20.2596239 C228.048942,19.7850242 227.84316,19.5816243 227.367734,19.6562043 L223.93331,20.0087641 C223.441874,20.1164553 222.926386,20.053987 222.478647,19.8324842 C222.181367,19.5491023 222.017438,19.1624194 222.024508,18.7612448 C221.947965,18.3985021 222.05293,18.022407 222.308345,17.7442453 C222.676497,17.4746664 223.128919,17.3313694 223.592706,17.3374456 L227.481268,16.9781058 C228.40161,16.797669 229.358834,16.9998193 230.113853,17.5340655 C230.674431,18.0222252 230.915692,18.8900647 230.823445,20.191824 L229.922264,34.1111561 C229.922264,34.4908359 230.021606,34.5654159 230.298347,34.321336 C230.717006,33.9891162 231.085994,33.6907963 231.398214,33.4128165 C231.710435,33.1348367 232.036847,32.8365168 232.391643,32.504297 C233.207673,31.7313775 233.924361,31.5889975 234.598473,32.0907173 Z M232.540657,14.4627272 C231.897294,15.0322469 231.152222,14.889867 230.305443,14.0355874 C229.595851,13.3236878 228.88626,12.5914483 228.119901,11.8388687 C227.353542,11.0862891 226.509128,10.3133695 225.558275,9.50654999 C225.177381,9.28362699 224.933363,8.89798462 224.903744,8.47214036 C224.874126,8.0462961 225.062589,7.63319242 225.409261,7.3640712 C225.647952,7.10605875 226.001287,6.97252863 226.360113,7.00473141 C226.867595,7.08747808 227.333246,7.32540301 227.68705,7.68273102 C228.784552,8.6093305 229.692829,9.42519004 230.411882,10.1303096 C231.130935,10.8354292 231.790855,11.5134289 232.391643,12.1643085 C232.777107,12.4857637 233.041377,12.9193086 233.14381,13.3982678 C233.114514,13.8181961 232.894072,14.20476 232.540657,14.4559472 L232.540657,14.4627272 Z M235.15905,10.0896297 C234.749838,10.1357375 234.337353,10.034185 234.002416,9.80486983 C233.768856,9.52346967 233.661673,9.16503153 233.704387,8.80821039 C233.674105,8.45036054 233.779923,8.09408107 234.002416,7.80477095 C234.326735,7.55299494 234.744223,7.43797435 235.15905,7.48611113 L254.992137,7.48611113 C255.390818,7.44720788 255.789265,7.56190843 256.0991,7.80477095 C256.329619,8.09077452 256.440872,8.44833066 256.41132,8.80821039 C256.461914,9.16766836 256.359687,9.53151064 256.127484,9.81842982 C255.807239,10.0392623 255.413516,10.1405455 255.020521,10.1031897 L244.163768,10.1031897 L243.262587,13.7440476 L250.734587,13.7440476 C251.408677,13.7328352 252.082613,13.7736478 252.749827,13.8660875 C253.16649,13.9125622 253.555527,14.0888891 253.85679,14.3678073 C254.117282,14.6856375 254.272899,15.0703418 254.303833,15.4729466 C254.374555,16.1192721 254.405357,16.7690177 254.39608,17.4188055 L254.39608,21.1342434 L256.560334,21.1342434 C256.94891,21.0525585 257.354454,21.1626433 257.640041,21.4273292 C257.925628,21.6920151 258.053137,22.0759722 257.979518,22.4495627 C258.006293,22.7987087 257.894864,23.144731 257.667297,23.4191021 C257.357463,23.6619647 256.959015,23.7766652 256.560334,23.737762 L233.888881,23.737762 C233.504303,23.827469 233.098373,23.724225 232.811366,23.4637073 C232.524359,23.2031896 232.395643,22.8211329 232.469698,22.4495627 C232.440511,22.0939223 232.546305,21.7401293 232.767726,21.4529033 C233.080368,21.2051179 233.485327,21.0900186 233.888881,21.1342434 L238.522514,21.1342434 L239.757204,16.2797662 L235.833162,16.2797662 C235.4918,16.306788 235.152311,16.2099597 234.882309,16.0085663 C234.635614,15.7251316 234.520325,15.3579456 234.562993,14.9915669 C234.506057,14.6530582 234.619953,14.308756 234.870164,14.0630069 C235.120375,13.8172578 235.477446,13.6989904 235.833162,13.7440476 L240.388741,13.7440476 L241.282826,10.0896297 L235.15905,10.0896297 Z M255.517235,35.9688751 C255.597808,36.7938643 255.371703,37.6196115 254.878602,38.3011937 C254.256616,38.8294929 253.426773,39.0765012 252.600813,38.9791934 L238.856023,38.9791934 C237.734868,38.9791934 236.968509,38.7486735 236.556946,38.3011937 C236.080907,37.6130833 235.865568,36.790076 235.946697,35.9688751 L235.946697,29.6973786 C235.866655,28.8911876 236.082381,28.0834804 236.556946,27.4125199 C237.189962,26.8885954 238.024079,26.6426137 238.856023,26.7345203 L252.579525,26.7345203 C253.404555,26.6467841 254.230405,26.8926039 254.857314,27.4125199 C255.350345,28.0761982 255.577026,28.8872036 255.495947,29.6973786 L255.517235,35.9688751 Z M252.827882,29.9685784 C252.827882,29.5685587 252.664676,29.3651588 252.338264,29.3651588 L239.097284,29.3651588 C238.799255,29.3651588 238.650241,29.5685587 238.650241,29.9685784 L238.650241,35.7519152 C238.650241,36.158715 238.799255,36.3553348 239.097284,36.3553348 L252.316976,36.3553348 C252.643388,36.3553348 252.806595,36.158715 252.806595,35.7519152 L252.827882,29.9685784 Z M242.645242,16.2797662 L241.410553,21.1342434 L251.607385,21.1342434 L251.607385,17.1001457 C251.634434,16.8684936 251.595195,16.6341696 251.49385,16.4221461 C251.422891,16.3272261 251.210013,16.2797662 250.862313,16.2797662 L242.645242,16.2797662 Z" id="形状" fill="#B5CAD7"></path>
            </g>
        </g>
    </g>
</svg>